<svg xmlns="http://www.w3.org/2000/svg" width="120" height="140" viewBox="0 0 120 140" role="img" aria-label="pasta illustration"><title>pasta illustration</title><defs>
<linearGradient id="paper" x1="0" x2="1"><stop stop-color="#e8ddbf"/><stop offset=".35" stop-color="#fff8e3"/><stop offset="1" stop-color="#e8dfc7"/></linearGradient>
<linearGradient id="glass" x1="0" x2="1"><stop stop-color="#425c38"/><stop offset=".35" stop-color="#7d8c45"/><stop offset=".72" stop-color="#566934"/><stop offset="1" stop-color="#354c2f"/></linearGradient>
<linearGradient id="tomato" x1="0" y1="0" x2=".7" y2="1"><stop stop-color="#ee7653"/><stop offset="1" stop-color="#c94f3d"/></linearGradient>
<linearGradient id="mushroom" x1="0" x2="0" y1="0" y2="1"><stop stop-color="#d4baa0"/><stop offset="1" stop-color="#aa876d"/></linearGradient>
</defs><ellipse cx="61" cy="127" rx="35" ry="6" fill="#344e3f" opacity=".1"/><path d="M34 12h51l5 110H29Z" fill="url(#paper)" stroke="#d9ceb1"/><path d="M34 12h51l-1 9H35Z" fill="#738676"/><path d="M29 117h61l-1 6H30Z" fill="#738676"/><path d="M40 35h35l4 50H37Z" fill="#d5ba76"/>
<g stroke="#efdba0" stroke-width="2.3" stroke-linecap="round"><path d="m42 39-2 41m7-42-2 42m7-42-1 42m6-42 1 42m4-42 2 42m3-42 3 42"/></g>
<rect x="32" y="83" width="56" height="28" fill="#f8f3df"/><text x="60" y="96" text-anchor="middle" font-size="9" letter-spacing="2" font-family="Georgia,serif" fill="#4c6451">PASTA</text><path d="M49 102h22" stroke="#a8ad85"/><path d="M35 24 31 113" stroke="#fffcef" stroke-width="2" opacity=".7"/></svg>
