<svg xmlns="http://www.w3.org/2000/svg" width="120" height="140" viewBox="0 0 120 140" role="img" aria-label="tomato illustration"><title>tomato illustration</title><defs>
<linearGradient id="paper" x1="0" x2="1"><stop stop-color="#e8ddbf"/><stop offset=".35" stop-color="#fff8e3"/><stop offset="1" stop-color="#e8dfc7"/></linearGradient>
<linearGradient id="glass" x1="0" x2="1"><stop stop-color="#425c38"/><stop offset=".35" stop-color="#7d8c45"/><stop offset=".72" stop-color="#566934"/><stop offset="1" stop-color="#354c2f"/></linearGradient>
<linearGradient id="tomato" x1="0" y1="0" x2=".7" y2="1"><stop stop-color="#ee7653"/><stop offset="1" stop-color="#c94f3d"/></linearGradient>
<linearGradient id="mushroom" x1="0" x2="0" y1="0" y2="1"><stop stop-color="#d4baa0"/><stop offset="1" stop-color="#aa876d"/></linearGradient>
</defs><ellipse cx="61" cy="127" rx="35" ry="6" fill="#344e3f" opacity=".1"/><path d="M20 78q1-15 18-19h47q16 3 17 17l-5 36q-37 20-70 0Z" fill="#d9c4a1"/><path d="M25 77h72l-7 34q-30 13-56 0Z" fill="#eee2c9"/>
<circle cx="45" cy="77" r="22" fill="url(#tomato)"/><circle cx="77" cy="82" r="22" fill="url(#tomato)"/><circle cx="65" cy="54" r="24" fill="url(#tomato)"/>
<g fill="#627b48"><path d="m64 47-14-8 7 11-11 5 15-1 8 10-2-13 12-7-14 2Z"/><path d="m41 70-8-7 2 9-9 5 12-2 7 9-1-10 10-5Z"/><path d="m77 76-9-6 3 9-6 6 12-3 9 5-4-10 7-4Z"/></g><path d="m64 47 3-14" fill="none" stroke="#567448" stroke-width="3" stroke-linecap="round"/><path d="M52 44q-5 3-7 10M32 75l-2 5M87 86l1 5" stroke="#ffb395" stroke-width="3" stroke-linecap="round" opacity=".7"/>
<path d="M26 103q35 12 71-1l-4 17q-31 10-63-1Z" fill="#dcc8a7"/><path d="m42 108 2 13m16-11v14m17-15-2 13" stroke="#bfae90"/></svg>
